<?xml version="1.0" encoding="utf-8"?>
<!-- Generator: Adobe Illustrator 27.9.0, SVG Export Plug-In . SVG Version: 6.00 Build 0)  -->
<svg version="1.1" id="Layer_1" xmlns="http://www.w3.org/2000/svg" xmlns:xlink="http://www.w3.org/1999/xlink" x="0px" y="0px"
	 viewBox="0 0 1000 1000" style="enable-background:new 0 0 1000 1000;" xml:space="preserve">
<style type="text/css">
	.st0{opacity:0.2;}
	.st1{fill:#39A4DD;}
</style>
<g class="st0">
	<path class="st1" d="M614.03,490.25c-0.51,0.89-1.67,1.15-2.5,0.58c-37.15-25.77-76.98-44.92-119.49-57.55
		c-42.55-12.64-86.4-18.33-131.54-17.02c-1.04,0.01-1.87-0.81-1.78-1.85c4.22-80.98,90.27-91.45,151.38-76.75
		c2.69-7.62,5.56-14.55,8.49-20.06c2.14-3.95,5.11-8.05,8.99-12.21c9.79-10.54,23.79-8.11,33.42,0.77c0.95,0.89,0.67,2.46-0.53,2.89
		c-13.26,4.85-25.07,12.89-34.07,25.13c-1.21,1.65-2.45,4.04-3.71,6.96C583.36,360.3,656.1,417.58,614.03,490.25z"/>
	<path class="st1" d="M601.47,498.92c-20.61,70.75-68.11,137.58-147.57,144.06c-8.28,1.59-16.37,1.56-24.37-0.09
		c-1.08-0.21-2.14-0.63-3.08-1.2c-18.87-11.54-33.96-25.29-45.2-41.31c-34.95-49.63-35.18-115.23-16.34-171.2
		c1.54-4.56,6.67-3.74,10.47-3.51c7.86,0.47,15.73,0.9,23.58,1.5c7.69,0.59,15.39,1.99,23.08,2.32c1.77,0.24,3.53,0.49,5.29,0.74
		c56.33,7.84,108.55,26.04,156.63,54.48l15.73,9.68C601.25,495.31,601.95,497.16,601.47,498.92z"/>
</g>
</svg>
